<?xml version="1.0" encoding="UTF-8"?>
<!DOCTYPE svg PUBLIC "-//W3C//DTD SVG 1.1//EN" "http://www.w3.org/Graphics/SVG/1.1/DTD/svg11.dtd">
<svg version="1.1" xmlns="http://www.w3.org/2000/svg" xmlns:xlink="http://www.w3.org/1999/xlink" x="0" y="0" width="512" height="512" viewBox="0, 0, 512, 512">
  <g id="Calque_1">
    <path d="M-0,0 L512,0 L512,512 L-0,512 L-0,0 z" fill="#546DFF" display="none"/>
    <path d="M480.378,360.176 L480.378,23.608 C480.378,10.286 469.66,-0.432 456.338,-0.432 L127.784,-0.432 C74.694,-0.432 31.622,42.64 31.622,95.73 L31.622,416.27 C31.622,469.36 74.694,512.432 127.784,512.432 L456.338,512.432 C469.66,512.432 480.378,501.714 480.378,488.392 L480.378,472.365 C480.378,464.852 476.872,458.041 471.463,453.633 C467.256,438.207 467.256,394.233 471.463,378.807 C476.872,374.5 480.378,367.688 480.378,360.176 z M159.838,133.794 C159.838,130.488 162.542,127.784 165.848,127.784 L378.206,127.784 C381.512,127.784 384.216,130.488 384.216,133.794 L384.216,153.828 C384.216,157.133 381.512,159.838 378.206,159.838 L165.848,159.838 C162.542,159.838 159.838,157.133 159.838,153.828 L159.838,133.794 z M159.838,197.902 C159.838,194.596 162.542,191.892 165.848,191.892 L378.206,191.892 C381.512,191.892 384.216,194.596 384.216,197.902 L384.216,217.936 C384.216,221.241 381.512,223.946 378.206,223.946 L165.848,223.946 C162.542,223.946 159.838,221.241 159.838,217.936 L159.838,197.902 z M413.666,448.324 L127.784,448.324 C110.054,448.324 95.73,434 95.73,416.27 C95.73,398.64 110.154,384.216 127.784,384.216 L413.666,384.216 C411.763,401.345 411.763,431.195 413.666,448.324 z" fill="#FFFFFF" id="book-solid"/>
    <path d="M146.024,78.48 L394.552,78.48 L394.552,265.525 L146.024,265.525 L146.024,78.48 z" fill="#FFFFFF"/>
    <path d="M400.332,84.463 L400.332,111.002 C400.332,134.39 342.083,153.465 270.288,153.465 C198.493,153.465 140.244,134.39 140.244,111.002 L140.244,84.463 C140.244,61.075 198.493,41.999 270.288,41.999 C342.083,41.999 400.332,61.075 400.332,84.463 z M400.332,144.177 L400.332,203.891 C400.332,227.279 342.083,246.354 270.288,246.354 C198.493,246.354 140.244,227.279 140.244,203.891 L140.244,144.177 C168.183,163.418 219.32,172.375 270.288,172.375 C321.256,172.375 372.392,163.418 400.332,144.177 z M400.332,237.065 L400.332,296.779 C400.332,320.167 342.083,339.242 270.288,339.242 C198.493,339.242 140.244,320.167 140.244,296.779 L140.244,237.065 C168.183,256.306 219.32,265.264 270.288,265.264 C321.256,265.264 372.392,256.306 400.332,237.065 z" fill="#546DFF" id="database-solid"/>
    <text transform="matrix(1, 0, 0, 1, 256, 428.056)" display="none">
      <tspan x="-131.04" y="-0.149" font-family="JosefinSans-SemiBold" font-size="36" fill="#FFFFFF">BookStorageDB</tspan>
    </text>
  </g>
</svg>
